Coordinates
version=1
nRows=25
nColumns=23
inDegrees=yes

Units are S.I. units (second, meters, Newtons, ...)
If the header above contains a line with 'inDegrees', this indicates whether rotational values are in degrees (yes) or radians (no).

endheader
time	pelvis_tilt	pelvis_list	pelvis_rotation	pelvis_tx	pelvis_ty	pelvis_tz	hip_flexion_r	hip_adduction_r	hip_rotation_r	knee_angle_r	knee_angle_r_beta	ankle_angle_r	subtalar_angle_r	mtp_angle_r	hip_flexion_l	hip_adduction_l	hip_rotation_l	knee_angle_l	knee_angle_l_beta	ankle_angle_l	subtalar_angle_l	mtp_angle_l
      0.00000000	     -9.46210687	     -1.73073342	      4.30484338	      2.16422781	      1.00747180	      1.07864775	     42.60005212	     -1.84298369	     -4.90787925	     73.11319838	      1.27606604	      9.26594986	    -10.03225051	      0.00000000	     -7.14806082	      0.72186995	     -2.14973293	     17.85549549	      0.31163719	      1.94443805	      5.74854743	      0.00000000
      0.00666667	    -10.55219552	     -1.48392065	      3.46131509	      2.16584854	      1.01050667	      1.08025906	     43.86313956	     -1.36057585	     -4.26307565	     69.01096571	      1.20446857	      9.40437840	     -9.69807393	      0.00000000	     -7.38889291	      0.92073696	     -3.42332528	     16.96324561	      0.29606449	     -2.08053381	      5.72482177	      0.00000000
      0.01333333	    -11.45880396	     -1.34370122	      2.67029485	      2.16760771	      1.01365885	      1.08179628	     44.64024818	     -0.69239865	     -3.62979597	     64.55452758	      1.12668905	      9.61589724	     -9.42478152	      0.00000000	     -7.88331034	      1.05652133	     -4.39593125	     15.93951291	      0.27819698	     -6.12563038	      5.38625882	      0.00000000
      0.02000000	    -12.66939990	     -1.10074758	      2.19868882	      2.16931436	      1.01607378	      1.08272410	     45.53835158	     -0.45712522	     -3.31419217	     59.96872431	      1.04665169	     10.01539129	     -8.64856728	      0.00000000	     -7.81946397	      1.23180692	     -5.32400144	     15.35092958	      0.26792426	     -9.68565198	      5.52017647	      0.00000000
      0.02666667	    -12.67226093	     -1.33580380	      1.59552807	      2.17160012	      1.02005646	      1.08386911	     44.75619281	      0.44668332	     -3.10854567	     54.81044173	      0.95662267	     10.20077401	     -8.28357999	      0.00000000	     -9.28480902	      1.02563615	     -5.74634170	     14.28806508	      0.24937378	    -13.29644218	      4.31526760	      0.00000000
      0.03333333	    -13.19304874	     -1.20146145	      1.07452311	      2.17345231	      1.02271207	      1.08477896	     44.52839507	      0.85044075	     -2.88473575	     49.77969402	      0.86881956	     10.61584899	     -7.30871777	      0.00000000	     -9.83911300	      1.14591313	     -6.44571092	     13.95465446	      0.24355467	    -16.07508933	      3.89025093	      0.00000000
      0.04000000	    -13.57088892	     -1.07764403	      0.66195662	      2.17530448	      1.02513048	      1.08547723	     44.01580451	      1.11311016	     -2.95187854	     44.66459094	      0.77954417	     11.05771787	     -6.00491987	      0.00000000	    -10.36595086	      1.25008596	     -6.96536360	     13.99430022	      0.24424662	    -18.24769420	      3.33596631	      0.00000000
      0.04666667	    -13.85593794	     -0.89192747	      0.25274929	      2.17703943	      1.02712824	      1.08617600	     43.35127939	      1.27893436	     -3.18877214	     39.58521516	      0.69089234	     11.57563936	     -4.31529459	      0.00000000	    -10.79824581	      1.42340213	     -7.36979711	     14.45290949	      0.25225086	    -19.76045827	      2.72443778	      0.00000000
      0.05333333	    -14.00832796	     -0.71409459	     -0.10539629	      2.17865115	      1.02879082	      1.08687259	     42.49503024	      1.38455078	     -3.71272627	     34.58062972	      0.60354585	     12.11022141	     -2.28147921	      0.00000000	    -11.16262711	      1.57196992	     -7.66051814	     15.35821380	      0.26805140	    -20.67726133	      2.07773516	      0.00000000
      0.06000000	    -14.56402297	     -0.16278789	     -0.71657015	      2.17959302	      1.02913617	      1.08809822	     42.22778623	      1.43012492	     -3.76603414	     29.93809997	      0.52251842	     12.62659251	     -0.28117263	      0.00000000	    -10.84937151	      2.15109035	     -7.97063539	     16.77716043	      0.29281669	    -21.01094353	      1.28008748	      0.00000000
      0.06666667	    -13.94753931	     -0.43630421	     -0.79547796	      2.18140193	      1.03097098	      1.08858926	     40.36450516	      1.72892586	     -5.24688947	     25.09971701	      0.43807270	     13.04456737	      2.23959923	      0.00000000	    -11.72111459	      1.77975424	     -7.85907330	     18.38888286	      0.32094655	    -20.86259070	      0.79377016	      0.00000000
      0.07333333	    -13.82658581	     -0.34733930	     -1.15717883	      2.18243641	      1.03137022	      1.08970267	     39.23752210	      2.08322679	     -5.88193446	     20.76821692	      0.36247377	     13.37872403	      4.24490007	      0.00000000	    -11.82445558	      1.82556168	     -7.83379260	     20.47646805	      0.35738179	    -20.34237158	      0.23961019	      0.00000000
      0.08000000	    -13.66245542	     -0.27768259	     -1.55136340	      2.18314738	      1.03131359	      1.09089773	     38.12659387	      2.54641095	     -6.22520531	     16.81255333	      0.29343441	     13.50604598	      5.71061583	      0.00000000	    -11.79621101	      1.86520727	     -7.72643942	     22.91229671	      0.39989502	    -19.46570896	     -0.22951606	      0.00000000
      0.08666667	    -13.54612375	     -0.20852713	     -1.93591850	      2.18356123	      1.03069772	      1.09199119	     37.15410679	      3.03312139	     -6.25320622	     13.33515395	      0.23274234	     13.50153624	      6.61264596	      0.00000000	    -11.52477362	      1.91513714	     -7.52411653	     25.69479096	      0.44845870	    -18.42626924	     -0.59108091	      0.00000000
      0.09333333	    -13.56180763	      0.05094517	     -2.55595879	      2.18350486	      1.02931759	      1.09326144	     36.63199471	      3.42717982	     -6.03236771	     10.77489984	      0.18805748	     13.67358137	      7.60617711	      0.00000000	    -11.00576516	      2.28048689	     -7.28344195	     28.61474965	      0.49942160	    -17.40549543	     -1.31534146	      0.00000000
      0.10000000	    -12.93029367	     -0.36130559	     -2.81307869	      2.18391740	      1.02870127	      1.09379777	     34.95417623	      4.27588298	     -5.40589895	      7.78097785	      0.13580368	     12.90393528	      6.62507503	      0.00000000	    -11.04934335	      1.75430781	     -7.33700732	     31.84073128	      0.55572560	    -16.30351526	     -0.83451771	      0.00000000
      0.10666667	    -12.65580617	     -0.44426394	     -3.27354237	      2.18371035	      1.02699346	      1.09436261	     34.23772147	      4.76756285	     -5.12883803	      6.27676499	      0.10955022	     12.64073162	      6.54456936	      0.00000000	    -10.56434647	      1.70605566	     -7.21991125	     35.22044514	      0.61471273	    -15.33763212	     -0.87030096	      0.00000000
      0.11333333	    -12.32866223	     -0.60030685	     -3.70733016	      2.18342576	      1.02501993	      1.09475309	     33.66862132	      5.21708828	     -5.13891329	      5.59584813	      0.09766597	     12.42738299	      6.57391469	      0.00000000	    -10.04033186	      1.60081412	     -7.05689364	     38.70856905	      0.67559198	    -14.52987498	     -1.00243641	      0.00000000
      0.12000000	    -11.82512800	     -0.88455602	     -4.22242199	      2.18306096	      1.02287449	      1.09508485	     33.06219812	      5.75502435	     -5.18623041	      5.62712423	      0.09821185	     12.18491458	      6.45792647	      0.00000000	     -9.63063331	      1.30659191	     -7.23907432	     42.30183495	      0.73830630	    -13.76949959	     -0.75525924	      0.00000000
      0.12666667	    -11.26407993	     -1.22958475	     -4.74311470	      2.18260276	      1.02043771	      1.09532529	     32.61006615	      6.26169132	     -5.46400718	      6.48170950	      0.11312717	     11.96297255	      6.52377569	      0.00000000	     -9.20373174	      0.92358507	     -7.50708563	     45.96791513	      0.80229147	    -13.16721619	     -0.57300277	      0.00000000
      0.13333333	    -10.41381416	     -1.67991247	     -5.24301934	      2.18226375	      1.01807233	      1.09536412	     31.86971425	      6.78902647	     -5.64293812	      7.75504172	      0.13535101	     11.40481588	      6.20262621	      0.00000000	     -9.09161915	      0.52529615	     -7.65298777	     49.52161910	      0.86431530	    -12.81388258	     -1.05248764	      0.00000000
      0.14000000	    -10.15081999	     -1.82583895	     -5.79164425	      2.18128450	      1.01422221	      1.09558820	     32.35623464	      6.89372550	     -6.61098645	     10.46723651	      0.18268774	     11.35190961	      7.17154983	      0.00000000	     -8.09825489	      0.16026263	     -8.20312455	     53.44236209	      0.93274518	    -12.30251529	     -0.60699956	      0.00000000
      0.14666667	     -9.51199029	     -2.16653426	     -6.24105708	      2.18060320	      1.01064868	      1.09559567	     32.19153677	      7.14278271	     -6.97675971	     12.99338513	      0.22677735	     10.58891155	      7.01127533	      0.00000000	     -7.54084572	     -0.36224850	     -8.61511600	     57.20672363	      0.99844568	    -11.90624917	     -0.67125191	      0.00000000
      0.15333333	     -8.48024564	     -2.69302229	     -6.56240547	      2.18015162	      1.00742464	      1.09542193	     31.44025673	      7.49205850	     -7.10950458	     15.46457339	      0.26990772	      9.47960956	      6.34603411	      0.00000000	     -7.43614015	     -1.05717914	     -8.92172623	     60.79111540	      1.06100512	    -11.79258159	     -1.40462509	      0.00000000
      0.16000000	     -8.56612988	     -2.42180348	     -7.08850600	      2.17853813	      1.00180897	      1.09571080	     32.51944551	      7.16879115	     -7.16871462	     19.13659284	      0.33399655	      8.77710933	      5.99115589	      0.00000000	     -5.76921483	     -1.10777276	     -9.34450037	     64.73300577	      1.12980409	    -11.36022222	     -1.83849595	      0.00000000
